<svg xmlns="http://www.w3.org/2000/svg" fill-rule="evenodd" stroke-linejoin="round" stroke-miterlimit="1.414" clip-rule="evenodd" viewBox="0 0 164 58">
  <path id="sign" fill-rule="nonzero" d="M7.264 58h7.264V29H7.264v29zm14.472 0H29V29h-7.264v29zm14.528 0h7.264V29h-7.264v29zm14.529 0h7.264V29h-7.264v29zM32.632 0L0 18.614v3.122h65.264v-3.122L32.632 0z"/>
  <path id="logotype" fill-rule="nonzero" d="M120.143 23.836h1.135v-6.867l6.016 6.867h.567v-9.194h-1.135v6.867l-5.959-6.867h-.624v9.194zm-12.485 0h7.604v-1.079h-6.469v-3.348h3.688v-1.078h-3.688v-2.724h6.072v-1.079h-7.207v9.308zM95.74 18.728v-3.065h4.086c1.135 0 1.702.568 1.702 1.533 0 .964-.624 1.475-1.759 1.475H95.74v.057zm-1.135 5.108h1.135v-4.03h4.256c1.703 0 2.724-1.135 2.724-2.667 0-1.532-1.078-2.497-2.894-2.497h-5.278v9.194h.057zm-10.045-.795c-2.043 0-3.576-1.532-3.576-3.746 0-2.156 1.533-3.745 3.576-3.745s3.575 1.589 3.575 3.745c0 2.157-1.532 3.746-3.575 3.746m0 1.078c2.724 0 4.767-1.986 4.767-4.824 0-2.837-2.043-4.823-4.767-4.823s-4.767 2.043-4.767 4.823c0 2.781 1.986 4.824 4.767 4.824m21.338 7.605h1.135l2.27 7.094 2.327-7.094h1.022l2.326 7.094 2.271-7.094h1.078l-3.008 9.194h-.851l-2.441-7.378-2.383 7.378h-.851l-2.895-9.194zm-5.675 5.618l-2.043-4.086-1.986 4.086h4.029zm-2.497-5.618h.965l4.54 9.194h-1.249l-1.248-2.497h-5.108l-1.192 2.497h-1.248l4.54-9.194zm-15.663 0h1.135v8.116h6.015v1.078h-7.15v-9.194zM158.166 58h1.135v-4.597l4.143-4.597h-1.475l-3.292 3.632-3.291-3.632h-1.419l4.143 4.597V58h.056zm-14.585-5.108v-3.064h4.086c1.135 0 1.703.567 1.703 1.532 0 .965-.624 1.476-1.759 1.476h-4.03v.056zM142.446 58h1.135v-4.029h3.576L149.483 58h1.249l-2.327-4.029c1.362-.227 2.157-1.306 2.157-2.611 0-1.589-1.079-2.554-2.895-2.554h-5.221V58zm-11.747-3.575l1.986-4.086 2.043 4.086h-4.029zM127.748 58h1.248l1.192-2.497h5.107L136.544 58h1.249l-4.541-9.194h-1.021L127.748 58zm-11.407-5.108v-3.064h4.086c1.135 0 1.702.567 1.702 1.532 0 .965-.624 1.476-1.759 1.476h-4.029v.056zM115.205 58h1.136v-4.029h3.575L122.243 58h1.248l-2.327-4.029c1.362-.227 2.157-1.306 2.157-2.611 0-1.589-1.078-2.554-2.894-2.554h-5.222V58zm-13.109-5.562v-2.553h4.427c.964 0 1.475.454 1.475 1.305 0 .794-.511 1.305-1.475 1.305h-4.427v-.057zm0 4.484V53.46h4.824c1.078 0 1.702.681 1.702 1.702 0 1.022-.624 1.703-1.702 1.703h-4.824v.057zM100.961 58h5.732c1.929 0 3.121-1.078 3.121-2.781 0-1.078-.511-1.873-1.475-2.44.567-.341.851-.965.851-1.703 0-1.475-.908-2.27-2.724-2.27h-5.448V58h-.057zm-7.094 0h1.135v-9.307h-1.135V58zm-11.804 0h7.15v-1.078h-6.015v-8.116h-1.135V58z"/>
</svg>
