<?xml version="1.0" encoding="UTF-8" standalone="no"?><!DOCTYPE svg PUBLIC "-//W3C//DTD SVG 1.1//EN" "http://www.w3.org/Graphics/SVG/1.1/DTD/svg11.dtd"><svg width="100%" height="100%" viewBox="0 0 512 512" version="1.1" xmlns="http://www.w3.org/2000/svg" xmlns:xlink="http://www.w3.org/1999/xlink" xml:space="preserve" xmlns:serif="http://www.serif.com/" style="fill-rule:evenodd;clip-rule:evenodd;stroke-linejoin:round;stroke-miterlimit:1.41421;"><rect id="safari-pinned-tab" x="0" y="0" width="512" height="512" style="fill:none;"/><clipPath id="_clip1"><rect x="0" y="0" width="512" height="512"/></clipPath><g clip-path="url(#_clip1)"><path id="OLL-logo" serif:id="OLL logo" d="M56.889,483.556l56.889,0l0,-227.556l-56.889,0l0,227.556Zm113.778,0l56.889,0l0,-227.556l-56.889,0l0,227.556Zm113.777,0l56.889,0l0,-227.556l-56.889,0l0,227.556Zm113.778,0l56.889,0l0,-227.556l-56.889,0l0,227.556Zm-142.222,-455.112l-256,146.36l0,24.307l512,0l0,-24.307l-256,-146.36Z" style="fill-rule:nonzero;"/></g></svg>